<?xml version="1.0" encoding="UTF-8" standalone="no"?>
<!DOCTYPE svg PUBLIC "-//W3C//DTD SVG 1.1//EN"
 "http://www.w3.org/Graphics/SVG/1.1/DTD/svg11.dtd">
<!-- Generated by graphviz version 2.40.1 (20161225.0304)
 -->
<!-- Title: G Pages: 1 -->
<svg width="785pt" height="472pt"
 viewBox="0.00 0.00 784.54 472.20" xmlns="http://www.w3.org/2000/svg" xmlns:xlink="http://www.w3.org/1999/xlink">
<g id="graph0" class="graph" transform="scale(1 1) rotate(0) translate(4 468.2)">
<title>G</title>
<polygon fill="#ffffff" stroke="transparent" points="-4,4 -4,-468.2 780.5359,-468.2 780.5359,4 -4,4"/>
<!-- a1ad1da78cc8439bbec5c66a1125786f -->
<g id="node1" class="node">
<title>a1ad1da78cc8439bbec5c66a1125786f</title>
<polygon fill="#ffd700" stroke="#000000" points=".4095,-414.1 .4095,-463.7 249.6439,-463.7 249.6439,-414.1 .4095,-414.1"/>
<text text-anchor="middle" x="125.0267" y="-447.1" font-family="Times,serif" font-size="14.00" fill="#000000">a1ad1da7&#45;8cc8&#45;439b&#45;bec5&#45;c66a1125786f</text>
<polyline fill="none" stroke="#000000" points=".4095,-438.9 249.6439,-438.9 "/>
<text text-anchor="middle" x="71.0701" y="-422.3" font-family="Times,serif" font-size="14.00" fill="#000000">2020&#45;44&#45;28</text>
<polyline fill="none" stroke="#000000" points="141.7307,-414.1 141.7307,-438.9 "/>
<text text-anchor="middle" x="195.676" y="-422.3" font-family="Times,serif" font-size="14.00" fill="#000000">11:02</text>
</g>
<!-- 3c984d7682a74ff6b64b561834df9327 -->
<g id="node2" class="node">
<title>3c984d7682a74ff6b64b561834df9327</title>
<polygon fill="#ffffff" stroke="#000000" points="0,-310.7 0,-360.3 250.0534,-360.3 250.0534,-310.7 0,-310.7"/>
<text text-anchor="middle" x="125.0267" y="-343.7" font-family="Times,serif" font-size="14.00" fill="#000000">3c984d76&#45;82a7&#45;4ff6&#45;b64b&#45;561834df9327</text>
<polyline fill="none" stroke="#000000" points="0,-335.5 250.0534,-335.5 "/>
<text text-anchor="middle" x="70.6606" y="-318.9" font-family="Times,serif" font-size="14.00" fill="#000000">2020&#45;45&#45;28</text>
<polyline fill="none" stroke="#000000" points="141.3212,-310.7 141.3212,-335.5 "/>
<text text-anchor="middle" x="195.2665" y="-318.9" font-family="Times,serif" font-size="14.00" fill="#000000">11:02</text>
</g>
<!-- a1ad1da78cc8439bbec5c66a1125786f&#45;&gt;3c984d7682a74ff6b64b561834df9327 -->
<g id="edge1" class="edge">
<title>a1ad1da78cc8439bbec5c66a1125786f&#45;&gt;3c984d7682a74ff6b64b561834df9327</title>
<path fill="none" stroke="#000000" d="M125.0267,-413.8697C125.0267,-401.0102 125.0267,-385.1191 125.0267,-371.0152"/>
<polygon fill="#000000" stroke="#000000" points="128.5268,-370.6581 125.0267,-360.6581 121.5268,-370.6582 128.5268,-370.6581"/>
<text text-anchor="middle" x="189.1656" y="-383" font-family="Times,serif" font-size="14.00" fill="#000000">per_sample_sequences</text>
</g>
<!-- bb1b2e930c454c8ea1402afa2110b5fb -->
<g id="node3" class="node">
<title>bb1b2e930c454c8ea1402afa2110b5fb</title>
<polygon fill="#ffffff" stroke="#000000" points=".7938,-207.3 .7938,-256.9 249.2596,-256.9 249.2596,-207.3 .7938,-207.3"/>
<text text-anchor="middle" x="125.0267" y="-240.3" font-family="Times,serif" font-size="14.00" fill="#000000">bb1b2e93&#45;0c45&#45;4c8e&#45;a140&#45;2afa2110b5fb</text>
<polyline fill="none" stroke="#000000" points=".7938,-232.1 249.2596,-232.1 "/>
<text text-anchor="middle" x="70.9544" y="-215.5" font-family="Times,serif" font-size="14.00" fill="#000000">2020&#45;39&#45;28</text>
<polyline fill="none" stroke="#000000" points="141.115,-207.3 141.115,-232.1 "/>
<text text-anchor="middle" x="195.0603" y="-215.5" font-family="Times,serif" font-size="14.00" fill="#000000">13:02</text>
</g>
<!-- 3c984d7682a74ff6b64b561834df9327&#45;&gt;bb1b2e930c454c8ea1402afa2110b5fb -->
<g id="edge2" class="edge">
<title>3c984d7682a74ff6b64b561834df9327&#45;&gt;bb1b2e930c454c8ea1402afa2110b5fb</title>
<path fill="none" stroke="#000000" d="M125.0267,-310.4697C125.0267,-297.6102 125.0267,-281.7191 125.0267,-267.6152"/>
<polygon fill="#000000" stroke="#000000" points="128.5268,-267.2581 125.0267,-257.2581 121.5268,-267.2582 128.5268,-267.2581"/>
<text text-anchor="middle" x="180.627" y="-279.6" font-family="Times,serif" font-size="14.00" fill="#000000">demultiplexed_seqs</text>
</g>
<!-- 9df281534e3844aabbc458a37d699580 -->
<g id="node4" class="node">
<title>9df281534e3844aabbc458a37d699580</title>
<polygon fill="#ffffff" stroke="#000000" points="131.8387,-103.9 131.8387,-153.5 384.2147,-153.5 384.2147,-103.9 131.8387,-103.9"/>
<text text-anchor="middle" x="258.0267" y="-136.9" font-family="Times,serif" font-size="14.00" fill="#000000">9df28153&#45;4e38&#45;44aa&#45;bbc4&#45;58a37d699580</text>
<polyline fill="none" stroke="#000000" points="131.8387,-128.7 384.2147,-128.7 "/>
<text text-anchor="middle" x="202.9993" y="-112.1" font-family="Times,serif" font-size="14.00" fill="#000000">2020&#45;42&#45;28</text>
<polyline fill="none" stroke="#000000" points="274.1599,-103.9 274.1599,-128.7 "/>
<text text-anchor="middle" x="329.1052" y="-112.1" font-family="Times,serif" font-size="14.00" fill="#000000">13:02</text>
</g>
<!-- bb1b2e930c454c8ea1402afa2110b5fb&#45;&gt;9df281534e3844aabbc458a37d699580 -->
<g id="edge3" class="edge">
<title>bb1b2e930c454c8ea1402afa2110b5fb&#45;&gt;9df281534e3844aabbc458a37d699580</title>
<path fill="none" stroke="#000000" d="M157.2223,-207.0697C175.3848,-192.9494 198.2487,-175.1741 217.6082,-160.1231"/>
<polygon fill="#000000" stroke="#000000" points="219.92,-162.7591 225.6666,-153.8581 215.6236,-157.2327 219.92,-162.7591"/>
<text text-anchor="middle" x="214.7939" y="-176.2" font-family="Times,serif" font-size="14.00" fill="#000000">reads</text>
</g>
<!-- 35c32fe73eb54b31aa3485ef27545f00 -->
<g id="node8" class="node">
<title>35c32fe73eb54b31aa3485ef27545f00</title>
<polygon fill="#cae1ff" stroke="#000000" points="134.5708,-.5 134.5708,-50.1 381.4826,-50.1 381.4826,-.5 134.5708,-.5"/>
<text text-anchor="middle" x="258.0267" y="-33.5" font-family="Times,serif" font-size="14.00" fill="#000000">35c32fe7&#45;3eb5&#45;4b31&#45;aa34&#45;85ef27545f00</text>
<polyline fill="none" stroke="#000000" points="134.5708,-25.3 381.4826,-25.3 "/>
<text text-anchor="middle" x="204.2314" y="-8.7" font-family="Times,serif" font-size="14.00" fill="#000000">2020&#45;44&#45;28</text>
<polyline fill="none" stroke="#000000" points="273.892,-.5 273.892,-25.3 "/>
<text text-anchor="middle" x="327.3373" y="-8.7" font-family="Times,serif" font-size="14.00" fill="#000000">13:02</text>
</g>
<!-- 9df281534e3844aabbc458a37d699580&#45;&gt;35c32fe73eb54b31aa3485ef27545f00 -->
<g id="edge7" class="edge">
<title>9df281534e3844aabbc458a37d699580&#45;&gt;35c32fe73eb54b31aa3485ef27545f00</title>
<path fill="none" stroke="#000000" d="M258.0267,-103.6697C258.0267,-90.8102 258.0267,-74.9191 258.0267,-60.8152"/>
<polygon fill="#000000" stroke="#000000" points="261.5268,-60.4581 258.0267,-50.4581 254.5268,-60.4582 261.5268,-60.4581"/>
<text text-anchor="middle" x="272.4173" y="-72.8" font-family="Times,serif" font-size="14.00" fill="#000000">input</text>
</g>
<!-- 71429e7c648942d6bbcaf4a6d9b85b48 -->
<g id="node5" class="node">
<title>71429e7c648942d6bbcaf4a6d9b85b48</title>
<polygon fill="#ffffff" stroke="#000000" points="266.8387,-207.3 266.8387,-256.9 519.2147,-256.9 519.2147,-207.3 266.8387,-207.3"/>
<text text-anchor="middle" x="393.0267" y="-240.3" font-family="Times,serif" font-size="14.00" fill="#000000">71429e7c&#45;6489&#45;42d6&#45;bbca&#45;f4a6d9b85b48</text>
<polyline fill="none" stroke="#000000" points="266.8387,-232.1 519.2147,-232.1 "/>
<text text-anchor="middle" x="337.9993" y="-215.5" font-family="Times,serif" font-size="14.00" fill="#000000">2020&#45;56&#45;24</text>
<polyline fill="none" stroke="#000000" points="409.1599,-207.3 409.1599,-232.1 "/>
<text text-anchor="middle" x="464.1052" y="-215.5" font-family="Times,serif" font-size="14.00" fill="#000000">09:01</text>
</g>
<!-- 71429e7c648942d6bbcaf4a6d9b85b48&#45;&gt;9df281534e3844aabbc458a37d699580 -->
<g id="edge4" class="edge">
<title>71429e7c648942d6bbcaf4a6d9b85b48&#45;&gt;9df281534e3844aabbc458a37d699580</title>
<path fill="none" stroke="#000000" d="M360.347,-207.0697C341.9113,-192.9494 318.7037,-175.1741 299.053,-160.1231"/>
<polygon fill="#000000" stroke="#000000" points="300.9405,-157.1602 290.8734,-153.8581 296.6841,-162.7174 300.9405,-157.1602"/>
<text text-anchor="middle" x="359.2897" y="-176.2" font-family="Times,serif" font-size="14.00" fill="#000000">classifier</text>
</g>
<!-- 6e46b89a0fcb4a5f860cec8ce26e7140 -->
<g id="node6" class="node">
<title>6e46b89a0fcb4a5f860cec8ce26e7140</title>
<polygon fill="#ffd700" stroke="#000000" points="268.9719,-310.7 268.9719,-360.3 515.0815,-360.3 515.0815,-310.7 268.9719,-310.7"/>
<text text-anchor="middle" x="392.0267" y="-343.7" font-family="Times,serif" font-size="14.00" fill="#000000">6e46b89a&#45;0fcb&#45;4a5f&#45;860c&#45;ec8ce26e7140</text>
<polyline fill="none" stroke="#000000" points="268.9719,-335.5 515.0815,-335.5 "/>
<text text-anchor="middle" x="338.6325" y="-318.9" font-family="Times,serif" font-size="14.00" fill="#000000">2020&#45;53&#45;24</text>
<polyline fill="none" stroke="#000000" points="408.2931,-310.7 408.2931,-335.5 "/>
<text text-anchor="middle" x="461.2384" y="-318.9" font-family="Times,serif" font-size="14.00" fill="#000000">09:01</text>
</g>
<!-- 6e46b89a0fcb4a5f860cec8ce26e7140&#45;&gt;71429e7c648942d6bbcaf4a6d9b85b48 -->
<g id="edge5" class="edge">
<title>6e46b89a0fcb4a5f860cec8ce26e7140&#45;&gt;71429e7c648942d6bbcaf4a6d9b85b48</title>
<path fill="none" stroke="#000000" d="M392.2688,-310.4697C392.3931,-297.6102 392.5468,-281.7191 392.6832,-267.6152"/>
<polygon fill="#000000" stroke="#000000" points="396.1864,-267.2915 392.7834,-257.2581 389.1868,-267.2238 396.1864,-267.2915"/>
<text text-anchor="middle" x="437.3213" y="-279.6" font-family="Times,serif" font-size="14.00" fill="#000000">reference_reads</text>
</g>
<!-- ffdfda2ebe6847f69bf507ccdd869689 -->
<g id="node7" class="node">
<title>ffdfda2ebe6847f69bf507ccdd869689</title>
<polygon fill="#ffd700" stroke="#000000" points="533.5175,-310.7 533.5175,-360.3 776.5359,-360.3 776.5359,-310.7 533.5175,-310.7"/>
<text text-anchor="middle" x="655.0267" y="-343.7" font-family="Times,serif" font-size="14.00" fill="#000000">ffdfda2e&#45;be68&#45;47f6&#45;9bf5&#45;07ccdd869689</text>
<polyline fill="none" stroke="#000000" points="533.5175,-335.5 776.5359,-335.5 "/>
<text text-anchor="middle" x="602.1781" y="-318.9" font-family="Times,serif" font-size="14.00" fill="#000000">2020&#45;55&#45;24</text>
<polyline fill="none" stroke="#000000" points="670.8387,-310.7 670.8387,-335.5 "/>
<text text-anchor="middle" x="723.284" y="-318.9" font-family="Times,serif" font-size="14.00" fill="#000000">09:01</text>
</g>
<!-- ffdfda2ebe6847f69bf507ccdd869689&#45;&gt;71429e7c648942d6bbcaf4a6d9b85b48 -->
<g id="edge6" class="edge">
<title>ffdfda2ebe6847f69bf507ccdd869689&#45;&gt;71429e7c648942d6bbcaf4a6d9b85b48</title>
<path fill="none" stroke="#000000" d="M591.9378,-310.6015C553.8091,-295.5538 505.0711,-276.3191 465.3826,-260.6557"/>
<polygon fill="#000000" stroke="#000000" points="466.6085,-257.3769 456.0218,-256.9614 464.0387,-263.8881 466.6085,-257.3769"/>
<text text-anchor="middle" x="597.552" y="-279.6" font-family="Times,serif" font-size="14.00" fill="#000000">reference_taxonomy</text>
</g>
</g>
</svg>